# xmcd
#
# Track frame offsets:
#	187
#	10925
#	26815
#	41675
#	54120
#	68120
#	80775
#	93867
#	107402
#	118172
#
# Disc length: 1767 seconds
#
# Revision: 1
# Processed by: cddbd v1.5.1PL0 Copyright (c) Steve Scherf et al.
# Submitted via: audiograbber 1.83.01
#
DISCID=7906e50a
DTITLE=Various Artist - JVC Karaoke - JV0032
DYEAR=1992
DGENRE=Karaoke
TTITLE0=Jones, Tom - What's New Pussycat
TTITLE1=Jones, Tom - Delilah
TTITLE2=Humperdinck, Engelbert - Release Me
TTITLE3=Humperdinck, Engelbert - Love Me With All Your Heart
TTITLE4=Humperdinck, Engelbert - Last Waltz, The
TTITLE5=Bennett, Tony - September Song
TTITLE6=Bennett, Tony - As Time Goes By
TTITLE7=Bennett, Tony - I Left My Heart In San Francisco
TTITLE8=Martin, Dean - Memories Are Made Of This
TTITLE9=Martin, Dean - Everybody Loves Somebody
EXTD=
EXTT0=
EXTT1=
EXTT2=
EXTT3=
EXTT4=
EXTT5=
EXTT6=
EXTT7=
EXTT8=
EXTT9=
PLAYORDER=
